<svg style="position: absolute; width: 0; height: 0; overflow: hidden;" aria-hidden="true" version="1.1" xmlns="http://www.w3.org/2000/svg" xmlns:xlink="http://www.w3.org/1999/xlink">
  <style>
        .default-palette, .palette0 {color: currentColor;
            --color0: #fd9222;
            --color1: #fcf1e0;
            --color2: #000;
        }
    </style>
  <defs>
    <symbol id="ic-arrow-down" viewBox="0 0 22 22" fill="none">
      <path fill="currentColor" d="M11.6508 12.2835c-0.0852 0.0859-0.1866 0.1541-0.2983 0.2007-0.1117 0.0465-0.2315 0.0705-0.3525 0.0705s-0.2408-0.024-0.3525-0.0705c-0.1117-0.0466-0.2131-0.1148-0.2983-0.2007L6.1508 8.076C6.0656 7.9901 5.9642 7.9219 5.8525 7.8754 5.7408 7.8288 5.621 7.8049 5.5 7.8049c-0.121 0-0.2408 0.0239-0.3525 0.0705C5.0358 7.9219 4.9344 7.9901 4.8492 8.076 4.6784 8.2478 4.5826 8.4801 4.5826 8.7223c0 0.2421 0.0958 0.4744 0.2666 0.6462l4.2075 4.2075c0.5156 0.515 1.2146 0.8042 1.9433 0.8042 0.7288 0 1.4277-0.2892 1.9433-0.8042l4.2076-4.2075c0.1693-0.1707 0.2648-0.4012 0.2658-0.6417 7e-4-0.1206-0.0224-0.2402-0.0681-0.3519-0.0456-0.1117-0.1128-0.2132-0.1977-0.2989-0.0853-0.0859-0.1866-0.1541-0.2984-0.2007C16.7408 7.8288 16.621 7.8049 16.5 7.8049c-0.121 0-0.2408 0.0239-0.3525 0.0705-0.1117 0.0465-0.2131 0.1147-0.2983 0.2006z" />
    </symbol>
    <symbol id="ic-logo" viewBox="0 0 24 24" fill="none">
      <path fill="var(--color1, #fcf1e0)" d="M2.9579 15.0568 11.0405 1.9886l0.48-0.5056 6.1768 4.1184 0.0423 2.4853 1.5075 2.4596-6.6598 10.5575z" />
      <path stroke-width="2" stroke="var(--color0, #fd9222)" stroke-linecap="round" stroke-linejoin="round" d="M16.2259 17.9097 5.5868 11.2616M8.5207 6.4491l10.6391 6.648M7.9725 19.3982 16.7741 4.9605M20.3823 11.0919c-2.2798-1.4246-3.1753-2.538-1.7083-4.9442l-7.2194-4.5112-8.8017 14.4377 10.6391 6.6481z" />
    </symbol>
    <symbol id="ic-tw" viewBox="0 0 24 24" fill="none">
      <path stroke-width="2" stroke="currentColor" stroke-linejoin="round" d="M23 3.0001c-0.9576 0.6754-2.0179 1.1921-3.14 1.53-0.6023-0.6925-1.4027-1.1834-2.293-1.4061-0.8903-0.2228-1.8275-0.1668-2.6849 0.1605s-1.5937 0.91-2.1091 1.6693C12.2575 5.7131 11.9877 6.6124 12 7.5301V8.53c-1.7574 0.0456-3.4987-0.3441-5.069-1.1345C5.3607 6.6051 3.5103 4.7231 2.5 3.2845 2.5 3.2845-1 13 8 17c-2.0595 1.398-4.5128 2.099-7 2 9 5 20 0 20-11.4999-9e-4-0.2786-0.0277-0.5565-0.08-0.83 1.0206-1.0066 1.7408-2.2773 2.08-3.67z" />
    </symbol>
    <symbol id="ic-spoon" viewBox="0 0 32 32" fill="none">
      <path fill="var(--color0, #fd9222)" d="M15.4515 14.1059c-0.7825-0.95-1.1765-2.116-1.1765-3.282 0-4.3237 5.1811-8.6421 10.3621-8.6421 2.8604 0 5.1811 2.3211 5.1811 5.182 0 5.1821-4.3176 10.3642-8.6459 10.3642-1.1657 0-2.3315-0.3941-3.2813-1.1768L5.1326 29.3121c-0.6746 0.6747-1.7702 0.6747-2.4448 0-0.6746-0.6748-0.6746-1.7706 0-2.4453z" />
    </symbol>
    <symbol id="ic-ig" viewBox="0 0 24 24" stroke-width="2" stroke="currentColor" stroke-linecap="round" stroke-linejoin="round" fill="none">
      <path d="M17 2H7C4.2386 2 2 4.2386 2 7v10c0 2.7614 2.2386 5 5 5h10c2.7614 0 5-2.2386 5-5V7c0-2.7614-2.2386-5-5-5z" />
      <path d="M16 11.3701c0.1234 0.8322-0.0187 1.6822-0.4062 2.429s-1.0006 1.3524-1.7522 1.7306c-0.7515 0.3783-1.6031 0.51-2.4338 0.3763s-1.598-0.5259-2.1929-1.1208c-0.595-0.5949-0.9872-1.3623-1.1208-2.1929-0.1337-0.8307-2e-3-1.6823 0.3762-2.4339 0.3783-0.7515 0.9839-1.3646 1.7307-1.7521s1.5968-0.5297 2.429-0.4062c0.8489 0.1258 1.6349 0.5214 2.2417 1.1283 0.6068 0.6068 1.0024 1.3927 1.1283 2.2417z" />
      <path d="M16 11.3701c0.1234 0.8322-0.0187 1.6822-0.4062 2.429s-1.0006 1.3524-1.7522 1.7306c-0.7515 0.3783-1.6031 0.51-2.4338 0.3763s-1.598-0.5259-2.1929-1.1208c-0.595-0.5949-0.9872-1.3623-1.1208-2.1929-0.1337-0.8307-2e-3-1.6823 0.3762-2.4339 0.3783-0.7515 0.9839-1.3646 1.7307-1.7521s1.5968-0.5297 2.429-0.4062c0.8489 0.1258 1.6349 0.5214 2.2417 1.1283 0.6068 0.6068 1.0024 1.3927 1.1283 2.2417z" />
      <path d="M17.5 6.5h0.01" />
      <path d="M17.5 6.5h0.01" />
    </symbol>
    <symbol id="ic-coin" viewBox="0 0 32 32" fill="var(--color0, #fd9222)">
      <path d="M16 2.6666c-7.3333 0-13.3333 6-13.3333 13.3334 0 7.3333 6 13.3333 13.3333 13.3333 7.3333 0 13.3333-6 13.3333-13.3333 0-7.3334-6-13.3334-13.3333-13.3334zM16 26.6666c-5.8667 0-10.6667-4.8-10.6667-10.6666 0-5.8667 4.8-10.6667 10.6667-10.6667 5.8667 0 10.6667 4.8 10.6667 10.6667 0 5.8666-4.8 10.6666-10.6667 10.6666z" />
      <path d="M17.7333 14.6666h-3.4666c-0.6667 0-1.2-0.5333-1.2-1.1999 0-0.6667 0.5333-1.2001 1.2-1.2001H19.2c0.8 0 1.3333-0.5333 1.3333-1.3333S20 9.6 19.2 9.6l-1.8667 0V8.4c0-0.8-0.5333-1.3334-1.3333-1.3334-0.8 0-1.3333 0.5334-1.3333 1.3334v1.2l-0.4 0c-2.1334 0-3.8667 1.7333-3.8667 3.8667 0 2.1333 1.7333 3.8666 3.8667 3.8666H17.6c0.6667 0 1.2 0.5333 1.2 1.2s-0.5333 1.2-1.2 1.2h-4.9333c-0.8 0-1.3334 0.5333-1.3334 1.3333S11.8667 22.4 12.6667 22.4h2v1.2c0 0.8 0.5333 1.3333 1.3333 1.3333S17.3333 24.4 17.3333 23.6v-1.2h0.4c2.1334 0 3.8667-1.7334 3.8667-3.8667s-1.7333-3.8667-3.8667-3.8667z" />
    </symbol>
    <symbol id="ic-choc-bar" viewBox="0 0 32 32" fill="none">
      <path fill="var(--color2, #000)" d="M13.822 2.413l7.527 7.536 0.08-0.08c0.1577-0.1543 0.3688-0.2418 0.5894-0.2442 0.2206-25e-4 0.4336 0.0804 0.5946 0.2312l6e-3 6e-3 0.867 0.867c0.305 0.305 0.315 0.77 0.083 1.094l-4e-3 7e-3-0.143 0.192 6.16 6.16c0.55 0.55 0.55 1.43 0 1.98l-9.43 9.43c-0.55 0.55-1.43 0.55-1.98 0l-4.447-4.447c-0.0738 0.0931-0.1666 0.1695-0.2721 0.2242s-0.2213 0.0864-0.34 0.0931c-0.1186 67e-4-0.2373-0.0118-0.3483-0.0542-0.111-0.0425-0.2117-0.1079-0.2956-0.1921l-2.6-2.6c-0.1543-0.1576-0.2418-0.3688-0.2442-0.5894-24e-4-0.2206 0.0804-0.4336 0.2312-0.5946l6e-3-7e-3 0.077-0.076-7.527-7.527c-0.55-0.55-0.55-1.43 0-1.98l9.43-9.43c0.55-0.55 1.43-0.55 1.98 0zM20.404 10.893 18.648 9.138c-0.0552-0.0569-0.1212-0.1021-0.1942-0.1331-0.073-0.0308-0.1515-0.0468-0.2308-0.0468-0.0793 0-0.1577 0.016-0.2307 0.0468-0.073 0.031-0.1391 0.0762-0.1943 0.1331l-3.58 3.58c-0.0567 0.0563-0.1017 0.1233-0.1324 0.1971-0.0308 0.0738-0.0466 0.153-0.0466 0.2329s0.0158 0.1591 0.0466 0.2329c0.0307 0.0738 0.0757 0.1408 0.1324 0.1971l1.749 1.749 0.61-0.61-1.565-1.565 3.21-3.22 1.569 1.574zM15.328 15.965l-1.754-1.754c-0.0552-0.0569-0.1212-0.1022-0.1942-0.1331s-0.1515-0.0468-0.2308-0.0468-0.1577 0.0159-0.2307 0.0468-0.1391 0.0762-0.1943 0.1331l-3.58 3.58-5e-3 5e-3-5e-3 5e-3c-0.24 0.23-0.24 0.61 0 0.85l1.752 1.752 0.616-0.616-1.57-1.564 3.22-3.21 1.564 1.563zM8.822 8.193l3.58 3.58c0.24 0.24 0.62 0.24 0.85-0.01l3.58-3.58c0.0569-0.0542 0.1022-0.1193 0.1331-0.1915 0.031-0.0722 0.0469-0.1499 0.0469-0.2285l0.01 0c0-0.15-0.06-0.31-0.18-0.43l-3.58-3.58c-0.0562-0.0568-0.1232-0.1019-0.197-0.1328-0.0738-0.0307-0.153-0.0466-0.233-0.0466s-0.1591 0.0159-0.233 0.0467c-0.0738 0.0308-0.1407 0.0759-0.197 0.1327l-3.58 3.59c-0.24 0.23-0.24 0.61 0 0.85zM3.752 13.263l3.58 3.58c0.24 0.24 0.62 0.24 0.85 0l3.58-3.58c0.0581-0.0553 0.1041-0.1221 0.1351-0.1961s0.0463-0.1537 0.0449-0.2339h0.01c0-0.16-0.06-0.31-0.18-0.43l-3.58-3.58C8.1368 8.7661 8.0708 8.7209 7.9978 8.69 7.9248 8.6591 7.8463 8.6431 7.767 8.6431c-0.0793 0-0.1577 0.016-0.2307 0.0468-0.073 0.031-0.1391 0.0762-0.1943 0.1331l-3.59 3.59c-0.24 0.23-0.24 0.61 0 0.85zM10.685 22.017l2.362 2.363 9.636-13.04-0.655-0.655z" />
      <path fill="var(--color0, #fd9222)" d="M13.822 2.413l7.527 7.536 0.08-0.08c0.1577-0.1543 0.3688-0.2418 0.5894-0.2442 0.2206-25e-4 0.4336 0.0804 0.5946 0.2312l6e-3 6e-3 0.867 0.867c0.305 0.305 0.315 0.77 0.083 1.094l-4e-3 7e-3-0.143 0.192 6.16 6.16c0.55 0.55 0.55 1.43 0 1.98l-9.43 9.43c-0.55 0.55-1.43 0.55-1.98 0l-4.447-4.447c-0.0738 0.0931-0.1666 0.1695-0.2721 0.2242s-0.2213 0.0864-0.34 0.0931c-0.1186 67e-4-0.2373-0.0118-0.3483-0.0542-0.111-0.0425-0.2117-0.1079-0.2956-0.1921l-2.6-2.6c-0.1543-0.1576-0.2418-0.3688-0.2442-0.5894-24e-4-0.2206 0.0804-0.4336 0.2312-0.5946l6e-3-7e-3 0.077-0.076-7.527-7.527c-0.55-0.55-0.55-1.43 0-1.98l9.43-9.43c0.55-0.55 1.43-0.55 1.98 0zM20.404 10.893 18.648 9.138c-0.0552-0.0569-0.1212-0.1021-0.1942-0.1331-0.073-0.0308-0.1515-0.0468-0.2308-0.0468-0.0793 0-0.1577 0.016-0.2307 0.0468-0.073 0.031-0.1391 0.0762-0.1943 0.1331l-3.58 3.58c-0.0567 0.0563-0.1017 0.1233-0.1324 0.1971-0.0308 0.0738-0.0466 0.153-0.0466 0.2329s0.0158 0.1591 0.0466 0.2329c0.0307 0.0738 0.0757 0.1408 0.1324 0.1971l1.749 1.749 0.61-0.61-1.565-1.565 3.21-3.22 1.569 1.574zM15.328 15.965l-1.754-1.754c-0.0552-0.0569-0.1212-0.1022-0.1942-0.1331s-0.1515-0.0468-0.2308-0.0468-0.1577 0.0159-0.2307 0.0468-0.1391 0.0762-0.1943 0.1331l-3.58 3.58-5e-3 5e-3-5e-3 5e-3c-0.24 0.23-0.24 0.61 0 0.85l1.752 1.752 0.616-0.616-1.57-1.564 3.22-3.21 1.564 1.563zM8.822 8.193l3.58 3.58c0.24 0.24 0.62 0.24 0.85-0.01l3.58-3.58c0.0569-0.0542 0.1022-0.1193 0.1331-0.1915 0.031-0.0722 0.0469-0.1499 0.0469-0.2285l0.01 0c0-0.15-0.06-0.31-0.18-0.43l-3.58-3.58c-0.0562-0.0568-0.1232-0.1019-0.197-0.1328-0.0738-0.0307-0.153-0.0466-0.233-0.0466s-0.1591 0.0159-0.233 0.0467c-0.0738 0.0308-0.1407 0.0759-0.197 0.1327l-3.58 3.59c-0.24 0.23-0.24 0.61 0 0.85zM3.752 13.263l3.58 3.58c0.24 0.24 0.62 0.24 0.85 0l3.58-3.58c0.0581-0.0553 0.1041-0.1221 0.1351-0.1961s0.0463-0.1537 0.0449-0.2339h0.01c0-0.16-0.06-0.31-0.18-0.43l-3.58-3.58C8.1368 8.7661 8.0708 8.7209 7.9978 8.69 7.9248 8.6591 7.8463 8.6431 7.767 8.6431c-0.0793 0-0.1577 0.016-0.2307 0.0468-0.073 0.031-0.1391 0.0762-0.1943 0.1331l-3.59 3.59c-0.24 0.23-0.24 0.61 0 0.85zM10.685 22.017l2.362 2.363 9.636-13.04-0.655-0.655z" />
    </symbol>
    <symbol id="ic-burger" viewBox="0 0 28 28" fill="none">
      <path stroke-width="2" stroke="currentColor" stroke-linecap="round" d="M3.5 14h21M3.5 7h21M3.5 21h21" />
    </symbol>
    <symbol id="ic-user" width="24" height="24" viewBox="0 0 24 24">
      <path d="M20 21V19C20 17.9391 19.5786 16.9217 18.8284 16.1716C18.0783 15.4214 17.0609 15 16 15H8C6.93913 15 5.92172 15.4214 5.17157 16.1716C4.42143 16.9217 4 17.9391 4 19V21" stroke-width="2" stroke-linecap="round" stroke-linejoin="round" />
      <path d="M12 11C14.2091 11 16 9.20914 16 7C16 4.79086 14.2091 3 12 3C9.79086 3 8 4.79086 8 7C8 9.20914 9.79086 11 12 11Z" stroke-width="2" stroke-linecap="round" stroke-linejoin="round" />
    </symbol>
    <symbol id="ic-email" width="24" height="24" viewBox="0 0 24 24">
      <path d="M4 4H20C21.1 4 22 4.9 22 6V18C22 19.1 21.1 20 20 20H4C2.9 20 2 19.1 2 18V6C2 4.9 2.9 4 4 4Z" stroke-width="2" stroke-linecap="round" stroke-linejoin="round" />
      <path d="M22 6L12 13L2 6" stroke-width="2" stroke-linecap="round" stroke-linejoin="round" />
    </symbol>
    <symbol id="ic-phone" width="24" height="24" viewBox="0 0 24 24">
      <path d="M22.0001 16.92V19.92C22.0012 20.1985 21.9441 20.4742 21.8326 20.7293C21.721 20.9845 21.5574 21.2136 21.3521 21.4019C21.1469 21.5901 20.9046 21.7335 20.6408 21.8227C20.377 21.9119 20.0974 21.9451 19.8201 21.92C16.7429 21.5856 13.7871 20.5341 11.1901 18.85C8.77388 17.3147 6.72539 15.2662 5.19006 12.85C3.50003 10.2412 2.4483 7.27099 2.12006 4.18C2.09507 3.90346 2.12793 3.62476 2.21656 3.36162C2.30518 3.09849 2.44763 2.85669 2.63482 2.65162C2.82202 2.44655 3.04986 2.28271 3.30385 2.17052C3.55783 2.05833 3.8324 2.00026 4.11006 2H7.11006C7.59536 1.99522 8.06585 2.16708 8.43382 2.48353C8.80179 2.79998 9.04213 3.23944 9.11005 3.72C9.23668 4.68006 9.47151 5.62272 9.81006 6.53C9.9446 6.88792 9.97372 7.27691 9.89396 7.65088C9.81421 8.02484 9.62892 8.36811 9.36005 8.64L8.09006 9.91C9.51361 12.4135 11.5865 14.4864 14.0901 15.91L15.3601 14.64C15.6319 14.3711 15.9752 14.1858 16.3492 14.1061C16.7231 14.0263 17.1121 14.0555 17.4701 14.19C18.3773 14.5285 19.32 14.7634 20.2801 14.89C20.7658 14.9585 21.2095 15.2032 21.5266 15.5775C21.8437 15.9518 22.0122 16.4296 22.0001 16.92Z" stroke-width="2" stroke-linecap="round" stroke-linejoin="round" />
    </symbol>
    <symbol id="ic-tick" width="10" height="10" viewBox="0 0 10 10">
      <path d="M3.94874 9.50837C4.38459 9.50837 4.71409 9.341 4.93724 9.00628L9.76464 1.73117C9.84484 1.61262 9.90411 1.49582 9.94247 1.38075C9.98082 1.2622 10 1.14888 10 1.0408C10 0.740934 9.8954 0.493375 9.68619 0.298117C9.48047 0.0993724 9.22594 0 8.92259 0C8.71339 0 8.53556 0.041841 8.38912 0.125523C8.24616 0.205718 8.11018 0.345188 7.98117 0.543933L3.92782 6.909L1.89854 4.47699C1.67887 4.22246 1.40342 4.09519 1.07218 4.09519C0.761855 4.09519 0.505579 4.19456 0.303347 4.39331C0.101116 4.59205 0 4.84135 0 5.14121C0 5.2772 0.0209205 5.40621 0.0627615 5.52824C0.108089 5.64679 0.190028 5.77057 0.308577 5.89958L3.00209 9.07427C3.24965 9.36367 3.5652 9.50837 3.94874 9.50837Z" />
    </symbol>
    <symbol id="ic-close" width="28" height="28" viewBox="0 0 28 28">
      <path d="M21 7L7 21" stroke-width="2" stroke-linecap="round" stroke-linejoin="round" />
      <path d="M7 7L21 21" stroke-width="2" stroke-linecap="round" stroke-linejoin="round" />
    </symbol>
  </defs>
</svg>