<svg style="position: absolute; width: 0; height: 0; overflow: hidden;" aria-hidden="true" version="1.1" xmlns="http://www.w3.org/2000/svg" xmlns:xlink="http://www.w3.org/1999/xlink">
    <style>
        .default-palette, .palette0 {color: currentColor;
            --color0: #fd9222;
            --color1: #fcf1e0;
            --color2: #000;
        }
    </style>
    <defs>
        <symbol id="ic-arrow-down" viewBox="0 0 22 22" fill="none">
            <path fill="currentColor" d="M11.6508 12.2835c-0.0852 0.0859-0.1866 0.1541-0.2983 0.2007-0.1117 0.0465-0.2315 0.0705-0.3525 0.0705s-0.2408-0.024-0.3525-0.0705c-0.1117-0.0466-0.2131-0.1148-0.2983-0.2007L6.1508 8.076C6.0656 7.9901 5.9642 7.9219 5.8525 7.8754 5.7408 7.8288 5.621 7.8049 5.5 7.8049c-0.121 0-0.2408 0.0239-0.3525 0.0705C5.0358 7.9219 4.9344 7.9901 4.8492 8.076 4.6784 8.2478 4.5826 8.4801 4.5826 8.7223c0 0.2421 0.0958 0.4744 0.2666 0.6462l4.2075 4.2075c0.5156 0.515 1.2146 0.8042 1.9433 0.8042 0.7288 0 1.4277-0.2892 1.9433-0.8042l4.2076-4.2075c0.1693-0.1707 0.2648-0.4012 0.2658-0.6417 7e-4-0.1206-0.0224-0.2402-0.0681-0.3519-0.0456-0.1117-0.1128-0.2132-0.1977-0.2989-0.0853-0.0859-0.1866-0.1541-0.2984-0.2007C16.7408 7.8288 16.621 7.8049 16.5 7.8049c-0.121 0-0.2408 0.0239-0.3525 0.0705-0.1117 0.0465-0.2131 0.1147-0.2983 0.2006z" />
        </symbol>
        <symbol id="ic-logo" viewBox="0 0 24 24" fill="none">
            <path fill="var(--color1, #fcf1e0)" d="M2.9579 15.0568 11.0405 1.9886l0.48-0.5056 6.1768 4.1184 0.0423 2.4853 1.5075 2.4596-6.6598 10.5575z" />
            <path stroke-width="2" stroke="var(--color0, #fd9222)" stroke-linecap="round" stroke-linejoin="round" d="M16.2259 17.9097 5.5868 11.2616M8.5207 6.4491l10.6391 6.648M7.9725 19.3982 16.7741 4.9605M20.3823 11.0919c-2.2798-1.4246-3.1753-2.538-1.7083-4.9442l-7.2194-4.5112-8.8017 14.4377 10.6391 6.6481z" />
        </symbol>
        <symbol id="ic-tw" viewBox="0 0 24 24" fill="none">
            <path stroke-width="2" stroke="currentColor" stroke-linejoin="round" d="M23 3.0001c-0.9576 0.6754-2.0179 1.1921-3.14 1.53-0.6023-0.6925-1.4027-1.1834-2.293-1.4061-0.8903-0.2228-1.8275-0.1668-2.6849 0.1605s-1.5937 0.91-2.1091 1.6693C12.2575 5.7131 11.9877 6.6124 12 7.5301V8.53c-1.7574 0.0456-3.4987-0.3441-5.069-1.1345C5.3607 6.6051 3.5103 4.7231 2.5 3.2845 2.5 3.2845-1 13 8 17c-2.0595 1.398-4.5128 2.099-7 2 9 5 20 0 20-11.4999-9e-4-0.2786-0.0277-0.5565-0.08-0.83 1.0206-1.0066 1.7408-2.2773 2.08-3.67z" />
        </symbol>
        <symbol id="ic-spoon" viewBox="0 0 32 32" fill="none">
            <path fill="var(--color0, #fd9222)" d="M15.4515 14.1059c-0.7825-0.95-1.1765-2.116-1.1765-3.282 0-4.3237 5.1811-8.6421 10.3621-8.6421 2.8604 0 5.1811 2.3211 5.1811 5.182 0 5.1821-4.3176 10.3642-8.6459 10.3642-1.1657 0-2.3315-0.3941-3.2813-1.1768L5.1326 29.3121c-0.6746 0.6747-1.7702 0.6747-2.4448 0-0.6746-0.6748-0.6746-1.7706 0-2.4453z" />
        </symbol>
        <symbol id="ic-ig" viewBox="0 0 24 24" stroke-width="2" stroke="currentColor" stroke-linecap="round" stroke-linejoin="round" fill="none">
            <path d="M17 2H7C4.2386 2 2 4.2386 2 7v10c0 2.7614 2.2386 5 5 5h10c2.7614 0 5-2.2386 5-5V7c0-2.7614-2.2386-5-5-5z" />
            <path d="M16 11.3701c0.1234 0.8322-0.0187 1.6822-0.4062 2.429s-1.0006 1.3524-1.7522 1.7306c-0.7515 0.3783-1.6031 0.51-2.4338 0.3763s-1.598-0.5259-2.1929-1.1208c-0.595-0.5949-0.9872-1.3623-1.1208-2.1929-0.1337-0.8307-2e-3-1.6823 0.3762-2.4339 0.3783-0.7515 0.9839-1.3646 1.7307-1.7521s1.5968-0.5297 2.429-0.4062c0.8489 0.1258 1.6349 0.5214 2.2417 1.1283 0.6068 0.6068 1.0024 1.3927 1.1283 2.2417z" />
            <path d="M16 11.3701c0.1234 0.8322-0.0187 1.6822-0.4062 2.429s-1.0006 1.3524-1.7522 1.7306c-0.7515 0.3783-1.6031 0.51-2.4338 0.3763s-1.598-0.5259-2.1929-1.1208c-0.595-0.5949-0.9872-1.3623-1.1208-2.1929-0.1337-0.8307-2e-3-1.6823 0.3762-2.4339 0.3783-0.7515 0.9839-1.3646 1.7307-1.7521s1.5968-0.5297 2.429-0.4062c0.8489 0.1258 1.6349 0.5214 2.2417 1.1283 0.6068 0.6068 1.0024 1.3927 1.1283 2.2417z" />
            <path d="M17.5 6.5h0.01" />
            <path d="M17.5 6.5h0.01" />
        </symbol>
        <symbol id="ic-coin" viewBox="0 0 32 32" fill="var(--color0, #fd9222)">
            <path d="M16 2.6666c-7.3333 0-13.3333 6-13.3333 13.3334 0 7.3333 6 13.3333 13.3333 13.3333 7.3333 0 13.3333-6 13.3333-13.3333 0-7.3334-6-13.3334-13.3333-13.3334zM16 26.6666c-5.8667 0-10.6667-4.8-10.6667-10.6666 0-5.8667 4.8-10.6667 10.6667-10.6667 5.8667 0 10.6667 4.8 10.6667 10.6667 0 5.8666-4.8 10.6666-10.6667 10.6666z" />
            <path d="M17.7333 14.6666h-3.4666c-0.6667 0-1.2-0.5333-1.2-1.1999 0-0.6667 0.5333-1.2001 1.2-1.2001H19.2c0.8 0 1.3333-0.5333 1.3333-1.3333S20 9.6 19.2 9.6l-1.8667 0V8.4c0-0.8-0.5333-1.3334-1.3333-1.3334-0.8 0-1.3333 0.5334-1.3333 1.3334v1.2l-0.4 0c-2.1334 0-3.8667 1.7333-3.8667 3.8667 0 2.1333 1.7333 3.8666 3.8667 3.8666H17.6c0.6667 0 1.2 0.5333 1.2 1.2s-0.5333 1.2-1.2 1.2h-4.9333c-0.8 0-1.3334 0.5333-1.3334 1.3333S11.8667 22.4 12.6667 22.4h2v1.2c0 0.8 0.5333 1.3333 1.3333 1.3333S17.3333 24.4 17.3333 23.6v-1.2h0.4c2.1334 0 3.8667-1.7334 3.8667-3.8667s-1.7333-3.8667-3.8667-3.8667z" />
        </symbol>
        <symbol id="ic-choc-bar" viewBox="0 0 32 32" fill="none">
            <path fill="var(--color2, #000)" d="M13.822 2.413l7.527 7.536 0.08-0.08c0.1577-0.1543 0.3688-0.2418 0.5894-0.2442 0.2206-25e-4 0.4336 0.0804 0.5946 0.2312l6e-3 6e-3 0.867 0.867c0.305 0.305 0.315 0.77 0.083 1.094l-4e-3 7e-3-0.143 0.192 6.16 6.16c0.55 0.55 0.55 1.43 0 1.98l-9.43 9.43c-0.55 0.55-1.43 0.55-1.98 0l-4.447-4.447c-0.0738 0.0931-0.1666 0.1695-0.2721 0.2242s-0.2213 0.0864-0.34 0.0931c-0.1186 67e-4-0.2373-0.0118-0.3483-0.0542-0.111-0.0425-0.2117-0.1079-0.2956-0.1921l-2.6-2.6c-0.1543-0.1576-0.2418-0.3688-0.2442-0.5894-24e-4-0.2206 0.0804-0.4336 0.2312-0.5946l6e-3-7e-3 0.077-0.076-7.527-7.527c-0.55-0.55-0.55-1.43 0-1.98l9.43-9.43c0.55-0.55 1.43-0.55 1.98 0zM20.404 10.893 18.648 9.138c-0.0552-0.0569-0.1212-0.1021-0.1942-0.1331-0.073-0.0308-0.1515-0.0468-0.2308-0.0468-0.0793 0-0.1577 0.016-0.2307 0.0468-0.073 0.031-0.1391 0.0762-0.1943 0.1331l-3.58 3.58c-0.0567 0.0563-0.1017 0.1233-0.1324 0.1971-0.0308 0.0738-0.0466 0.153-0.0466 0.2329s0.0158 0.1591 0.0466 0.2329c0.0307 0.0738 0.0757 0.1408 0.1324 0.1971l1.749 1.749 0.61-0.61-1.565-1.565 3.21-3.22 1.569 1.574zM15.328 15.965l-1.754-1.754c-0.0552-0.0569-0.1212-0.1022-0.1942-0.1331s-0.1515-0.0468-0.2308-0.0468-0.1577 0.0159-0.2307 0.0468-0.1391 0.0762-0.1943 0.1331l-3.58 3.58-5e-3 5e-3-5e-3 5e-3c-0.24 0.23-0.24 0.61 0 0.85l1.752 1.752 0.616-0.616-1.57-1.564 3.22-3.21 1.564 1.563zM8.822 8.193l3.58 3.58c0.24 0.24 0.62 0.24 0.85-0.01l3.58-3.58c0.0569-0.0542 0.1022-0.1193 0.1331-0.1915 0.031-0.0722 0.0469-0.1499 0.0469-0.2285l0.01 0c0-0.15-0.06-0.31-0.18-0.43l-3.58-3.58c-0.0562-0.0568-0.1232-0.1019-0.197-0.1328-0.0738-0.0307-0.153-0.0466-0.233-0.0466s-0.1591 0.0159-0.233 0.0467c-0.0738 0.0308-0.1407 0.0759-0.197 0.1327l-3.58 3.59c-0.24 0.23-0.24 0.61 0 0.85zM3.752 13.263l3.58 3.58c0.24 0.24 0.62 0.24 0.85 0l3.58-3.58c0.0581-0.0553 0.1041-0.1221 0.1351-0.1961s0.0463-0.1537 0.0449-0.2339h0.01c0-0.16-0.06-0.31-0.18-0.43l-3.58-3.58C8.1368 8.7661 8.0708 8.7209 7.9978 8.69 7.9248 8.6591 7.8463 8.6431 7.767 8.6431c-0.0793 0-0.1577 0.016-0.2307 0.0468-0.073 0.031-0.1391 0.0762-0.1943 0.1331l-3.59 3.59c-0.24 0.23-0.24 0.61 0 0.85zM10.685 22.017l2.362 2.363 9.636-13.04-0.655-0.655z" />
            <path fill="var(--color0, #fd9222)" d="M13.822 2.413l7.527 7.536 0.08-0.08c0.1577-0.1543 0.3688-0.2418 0.5894-0.2442 0.2206-25e-4 0.4336 0.0804 0.5946 0.2312l6e-3 6e-3 0.867 0.867c0.305 0.305 0.315 0.77 0.083 1.094l-4e-3 7e-3-0.143 0.192 6.16 6.16c0.55 0.55 0.55 1.43 0 1.98l-9.43 9.43c-0.55 0.55-1.43 0.55-1.98 0l-4.447-4.447c-0.0738 0.0931-0.1666 0.1695-0.2721 0.2242s-0.2213 0.0864-0.34 0.0931c-0.1186 67e-4-0.2373-0.0118-0.3483-0.0542-0.111-0.0425-0.2117-0.1079-0.2956-0.1921l-2.6-2.6c-0.1543-0.1576-0.2418-0.3688-0.2442-0.5894-24e-4-0.2206 0.0804-0.4336 0.2312-0.5946l6e-3-7e-3 0.077-0.076-7.527-7.527c-0.55-0.55-0.55-1.43 0-1.98l9.43-9.43c0.55-0.55 1.43-0.55 1.98 0zM20.404 10.893 18.648 9.138c-0.0552-0.0569-0.1212-0.1021-0.1942-0.1331-0.073-0.0308-0.1515-0.0468-0.2308-0.0468-0.0793 0-0.1577 0.016-0.2307 0.0468-0.073 0.031-0.1391 0.0762-0.1943 0.1331l-3.58 3.58c-0.0567 0.0563-0.1017 0.1233-0.1324 0.1971-0.0308 0.0738-0.0466 0.153-0.0466 0.2329s0.0158 0.1591 0.0466 0.2329c0.0307 0.0738 0.0757 0.1408 0.1324 0.1971l1.749 1.749 0.61-0.61-1.565-1.565 3.21-3.22 1.569 1.574zM15.328 15.965l-1.754-1.754c-0.0552-0.0569-0.1212-0.1022-0.1942-0.1331s-0.1515-0.0468-0.2308-0.0468-0.1577 0.0159-0.2307 0.0468-0.1391 0.0762-0.1943 0.1331l-3.58 3.58-5e-3 5e-3-5e-3 5e-3c-0.24 0.23-0.24 0.61 0 0.85l1.752 1.752 0.616-0.616-1.57-1.564 3.22-3.21 1.564 1.563zM8.822 8.193l3.58 3.58c0.24 0.24 0.62 0.24 0.85-0.01l3.58-3.58c0.0569-0.0542 0.1022-0.1193 0.1331-0.1915 0.031-0.0722 0.0469-0.1499 0.0469-0.2285l0.01 0c0-0.15-0.06-0.31-0.18-0.43l-3.58-3.58c-0.0562-0.0568-0.1232-0.1019-0.197-0.1328-0.0738-0.0307-0.153-0.0466-0.233-0.0466s-0.1591 0.0159-0.233 0.0467c-0.0738 0.0308-0.1407 0.0759-0.197 0.1327l-3.58 3.59c-0.24 0.23-0.24 0.61 0 0.85zM3.752 13.263l3.58 3.58c0.24 0.24 0.62 0.24 0.85 0l3.58-3.58c0.0581-0.0553 0.1041-0.1221 0.1351-0.1961s0.0463-0.1537 0.0449-0.2339h0.01c0-0.16-0.06-0.31-0.18-0.43l-3.58-3.58C8.1368 8.7661 8.0708 8.7209 7.9978 8.69 7.9248 8.6591 7.8463 8.6431 7.767 8.6431c-0.0793 0-0.1577 0.016-0.2307 0.0468-0.073 0.031-0.1391 0.0762-0.1943 0.1331l-3.59 3.59c-0.24 0.23-0.24 0.61 0 0.85zM10.685 22.017l2.362 2.363 9.636-13.04-0.655-0.655z" />
        </symbol>
        <symbol id="ic-burger" viewBox="0 0 28 28" fill="none">
            <path stroke-width="2" stroke="currentColor" stroke-linecap="round" d="M3.5 14h21M3.5 7h21M3.5 21h21" />
        </symbol>
    </defs>
</svg>